<svg width="48" height="45" viewBox="0 0 48 45" fill="none" xmlns="http://www.w3.org/2000/svg">
<g clip-path="url(#clip0_1063_520)">
<path d="M14.825 22.4C12.125 22.4833 9.91667 23.55 8.2 25.6H4.85C3.48333 25.6 2.33333 25.2625 1.4 24.5875C0.466667 23.9125 0 22.925 0 21.625C0 15.7416 1.03333 12.8 3.1 12.8C3.2 12.8 3.5625 12.975 4.1875 13.325C4.8125 13.675 5.625 14.0292 6.625 14.3875C7.625 14.7458 8.61667 14.925 9.6 14.925C10.7167 14.925 11.825 14.7333 12.925 14.35C12.8417 14.9666 12.8 15.5166 12.8 16C12.8 18.3166 13.475 20.45 14.825 22.4ZM41.6 38.325C41.6 40.325 40.9917 41.9041 39.775 43.0625C38.5583 44.2208 36.9417 44.7999 34.925 44.7999H13.075C11.0583 44.7999 9.44167 44.2208 8.225 43.0625C7.00833 41.9041 6.4 40.325 6.4 38.325C6.4 37.4416 6.42917 36.5791 6.4875 35.7375C6.54583 34.8958 6.6625 33.9875 6.8375 33.0125C7.0125 32.0375 7.23333 31.1333 7.5 30.3C7.76667 29.4666 8.125 28.6541 8.575 27.8625C9.025 27.0708 9.54167 26.3958 10.125 25.8375C10.7083 25.2791 11.4208 24.8333 12.2625 24.5C13.1042 24.1666 14.0333 24 15.05 24C15.2167 24 15.575 24.1791 16.125 24.5375C16.675 24.8958 17.2833 25.2958 17.95 25.7375C18.6167 26.1791 19.5083 26.5791 20.625 26.9375C21.7417 27.2958 22.8667 27.475 24 27.475C25.1333 27.475 26.2583 27.2958 27.375 26.9375C28.4917 26.5791 29.3833 26.1791 30.05 25.7375C30.7167 25.2958 31.325 24.8958 31.875 24.5375C32.425 24.1791 32.7833 24 32.95 24C33.9667 24 34.8958 24.1666 35.7375 24.5C36.5792 24.8333 37.2917 25.2791 37.875 25.8375C38.4583 26.3958 38.975 27.0708 39.425 27.8625C39.875 28.6541 40.2333 29.4666 40.5 30.3C40.7667 31.1333 40.9875 32.0375 41.1625 33.0125C41.3375 33.9875 41.4542 34.8958 41.5125 35.7375C41.5708 36.5791 41.6 37.4416 41.6 38.325ZM16 6.39999C16 8.16666 15.375 9.67499 14.125 10.925C12.875 12.175 11.3667 12.8 9.6 12.8C7.83333 12.8 6.325 12.175 5.075 10.925C3.825 9.67499 3.2 8.16666 3.2 6.39999C3.2 4.63333 3.825 3.125 5.075 1.875C6.325 0.624999 7.83333 0 9.6 0C11.3667 0 12.875 0.624999 14.125 1.875C15.375 3.125 16 4.63333 16 6.39999ZM33.6 16C33.6 18.65 32.6625 20.9125 30.7875 22.7875C28.9125 24.6625 26.65 25.6 24 25.6C21.35 25.6 19.0875 24.6625 17.2125 22.7875C15.3375 20.9125 14.4 18.65 14.4 16C14.4 13.35 15.3375 11.0875 17.2125 9.21249C19.0875 7.33749 21.35 6.39999 24 6.39999C26.65 6.39999 28.9125 7.33749 30.7875 9.21249C32.6625 11.0875 33.6 13.35 33.6 16ZM48 21.625C48 22.925 47.5333 23.9125 46.6 24.5875C45.6667 25.2625 44.5167 25.6 43.15 25.6H39.8C38.0833 23.55 35.875 22.4833 33.175 22.4C34.525 20.45 35.2 18.3166 35.2 16C35.2 15.5166 35.1583 14.9666 35.075 14.35C36.175 14.7333 37.2833 14.925 38.4 14.925C39.3833 14.925 40.375 14.7458 41.375 14.3875C42.375 14.0292 43.1875 13.675 43.8125 13.325C44.4375 12.975 44.8 12.8 44.9 12.8C46.9667 12.8 48 15.7416 48 21.625ZM44.8 6.39999C44.8 8.16666 44.175 9.67499 42.925 10.925C41.675 12.175 40.1667 12.8 38.4 12.8C36.6333 12.8 35.125 12.175 33.875 10.925C32.625 9.67499 32 8.16666 32 6.39999C32 4.63333 32.625 3.125 33.875 1.875C35.125 0.624999 36.6333 0 38.4 0C40.1667 0 41.675 0.624999 42.925 1.875C44.175 3.125 44.8 4.63333 44.8 6.39999Z" fill="#17163E"/>
</g>
<defs>
<clipPath id="clip0_1063_520">
<rect width="48" height="44.7999" fill="white"/>
</clipPath>
</defs>
</svg>
