<svg width="48" height="36" viewBox="0 0 48 36" fill="none" xmlns="http://www.w3.org/2000/svg">
<path d="M31.5 19.5C31.5 21.4891 30.7098 23.3968 29.3033 24.8033C27.8968 26.2098 25.9891 27 24 27C22.0109 27 20.1032 26.2098 18.6967 24.8033C17.2902 23.3968 16.5 21.4891 16.5 19.5C16.5 17.5109 17.2902 15.6032 18.6967 14.1967C20.1032 12.7902 22.0109 12 24 12C25.9891 12 27.8968 12.7902 29.3033 14.1967C30.7098 15.6032 31.5 17.5109 31.5 19.5Z" fill="black"/>
<path d="M6 6C4.4087 6 2.88258 6.63214 1.75736 7.75736C0.632141 8.88258 0 10.4087 0 12L0 30C0 31.5913 0.632141 33.1174 1.75736 34.2426C2.88258 35.3679 4.4087 36 6 36H42C43.5913 36 45.1174 35.3679 46.2426 34.2426C47.3679 33.1174 48 31.5913 48 30V12C48 10.4087 47.3679 8.88258 46.2426 7.75736C45.1174 6.63214 43.5913 6 42 6H38.484C36.8928 5.99966 35.367 5.3673 34.242 4.242L31.758 1.758C30.633 0.632704 29.1072 0.000339824 27.516 0H20.484C18.8928 0.000339824 17.367 0.632704 16.242 1.758L13.758 4.242C12.633 5.3673 11.1072 5.99966 9.516 6H6ZM7.5 12C7.10218 12 6.72064 11.842 6.43934 11.5607C6.15804 11.2794 6 10.8978 6 10.5C6 10.1022 6.15804 9.72064 6.43934 9.43934C6.72064 9.15804 7.10218 9 7.5 9C7.89782 9 8.27936 9.15804 8.56066 9.43934C8.84196 9.72064 9 10.1022 9 10.5C9 10.8978 8.84196 11.2794 8.56066 11.5607C8.27936 11.842 7.89782 12 7.5 12ZM34.5 19.5C34.5 22.2848 33.3938 24.9555 31.4246 26.9246C29.4555 28.8938 26.7848 30 24 30C21.2152 30 18.5445 28.8938 16.5754 26.9246C14.6062 24.9555 13.5 22.2848 13.5 19.5C13.5 16.7152 14.6062 14.0445 16.5754 12.0754C18.5445 10.1062 21.2152 9 24 9C26.7848 9 29.4555 10.1062 31.4246 12.0754C33.3938 14.0445 34.5 16.7152 34.5 19.5Z" fill="black"/>
</svg>
