<svg width="32" height="32" viewBox="0 0 32 32" fill="none" xmlns="http://www.w3.org/2000/svg">
    <path d="M4.54879 31.2181C4.04636 31.7034 3.37345 31.9719 2.67497 31.9658C1.97649 31.9597 1.30835 31.6796 0.81443 31.1857C0.320514 30.6918 0.04035 30.0237 0.0342804 29.3252C0.0282108 28.6268 0.296722 27.9539 0.78198 27.4515L11.4377 16.7961C11.6835 16.5417 11.9774 16.3388 12.3024 16.1992C12.6274 16.0596 12.977 15.9861 13.3307 15.983C13.6844 15.9799 14.0352 16.0473 14.3626 16.1813C14.69 16.3152 14.9874 16.513 15.2376 16.7631C15.4877 17.0132 15.6855 17.3107 15.8194 17.638C15.9534 17.9654 16.0208 18.3162 16.0177 18.6699C16.0146 19.0236 15.9411 19.3731 15.8015 19.6981C15.6619 20.0231 15.459 20.3171 15.2045 20.5628L4.54879 31.2181Z" fill="white"/>
    <path d="M2.66394 31.9988C1.95742 31.9988 1.27984 31.7181 0.78025 31.2186C0.280665 30.719 0 30.0415 0 29.335C0 28.6285 0.280665 27.9509 0.78025 27.4514C1.27984 26.9518 1.95742 26.6711 2.66394 26.6711H13.3197C14.0262 26.6711 14.7038 26.9518 15.2034 27.4514C15.703 27.9509 15.9836 28.6285 15.9836 29.335C15.9836 30.0415 15.703 30.719 15.2034 31.2186C14.7038 31.7181 14.0262 31.9988 13.3197 31.9988H2.66394Z" fill="white"/>
    <path d="M5.32788 29.3349C5.32788 30.0414 5.04721 30.7189 4.54763 31.2185C4.04804 31.718 3.37046 31.9987 2.66394 31.9987C1.95742 31.9987 1.27984 31.718 0.78025 31.2185C0.280665 30.7189 0 30.0414 0 29.3349V18.6795C0 17.9731 0.280665 17.2955 0.78025 16.7959C1.27984 16.2964 1.95742 16.0157 2.66394 16.0157C3.37046 16.0157 4.04804 16.2964 4.54763 16.7959C5.04721 17.2955 5.32788 17.9731 5.32788 18.6795V29.3349ZM20.531 15.2352C20.0285 15.7205 19.3556 15.9889 18.6572 15.9829C17.9587 15.9768 17.2905 15.6967 16.7966 15.2028C16.3027 14.7089 16.0225 14.0407 16.0165 13.3423C16.0104 12.6438 16.2789 11.971 16.7642 11.4686L27.4199 0.813236C27.6657 0.558814 27.9596 0.355877 28.2846 0.216268C28.6096 0.0766593 28.9592 0.00317415 29.3129 0.000100578C29.6666 -0.00297299 30.0174 0.0644259 30.3448 0.198366C30.6722 0.332305 30.9696 0.530103 31.2197 0.780217C31.4699 1.03033 31.6677 1.32775 31.8016 1.65513C31.9356 1.9825 32.003 2.33328 31.9999 2.68698C31.9968 3.04068 31.9233 3.39023 31.7837 3.71522C31.6441 4.04022 31.4412 4.33416 31.1867 4.57989L20.531 15.2352Z" fill="white"/>
    <path d="M31.9675 13.3519C31.9675 14.0584 31.6869 14.7359 31.1873 15.2355C30.6877 15.735 30.0101 16.0157 29.3036 16.0157C28.5971 16.0157 27.9195 15.735 27.4199 15.2355C26.9203 14.7359 26.6396 14.0584 26.6396 13.3519V2.69655C26.6396 1.99005 26.9203 1.3125 27.4199 0.812933C27.9195 0.313368 28.5971 0.0327148 29.3036 0.0327148C30.0101 0.0327148 30.6877 0.313368 31.1873 0.812933C31.6869 1.3125 31.9675 1.99005 31.9675 2.69655V13.3519Z" fill="white"/>
    <path d="M18.6473 5.36038C17.9408 5.36038 17.2632 5.07972 16.7636 4.58016C16.2641 4.08059 15.9834 3.40304 15.9834 2.69655C15.9834 1.99005 16.2641 1.3125 16.7636 0.812933C17.2632 0.313368 17.9408 0.0327148 18.6473 0.0327148H29.3031C30.0096 0.0327148 30.6872 0.313368 31.1868 0.812933C31.6864 1.3125 31.967 1.99005 31.967 2.69655C31.967 3.40304 31.6864 4.08059 31.1868 4.58016C30.6872 5.07972 30.0096 5.36038 29.3031 5.36038H18.6473Z" fill="white"/>
</svg>