<svg width="61" height="61" viewBox="0 0 61 61" fill="none" xmlns="http://www.w3.org/2000/svg">
<path d="M60.8656 2.61464C61.0043 2.26822 61.0382 1.88872 60.9632 1.52319C60.8883 1.15766 60.7076 0.822178 60.4438 0.558328C60.1799 0.294479 59.8445 0.113867 59.4789 0.0388851C59.1134 -0.0360971 58.7339 -0.00215251 58.3875 0.136511L2.92705 22.3214H2.92323L1.19998 23.0077C0.873596 23.1379 0.589547 23.3558 0.379212 23.6373C0.168877 23.9187 0.0404421 24.2529 0.00809477 24.6028C-0.0242525 24.9527 0.0407465 25.3047 0.195912 25.62C0.351077 25.9353 0.590371 26.2016 0.887359 26.3894L2.45048 27.3806L2.4543 27.3883L21.4977 39.5044L33.6139 58.5478L33.6215 58.5555L34.6127 60.1186C34.8012 60.4144 35.0676 60.6525 35.3826 60.8067C35.6977 60.9609 36.0491 61.0252 36.3984 60.9925C36.7476 60.9597 37.081 60.8313 37.3619 60.6213C37.6429 60.4113 37.8604 60.1278 37.9906 59.8021L60.8656 2.61464ZM53.8773 9.82026L25.3064 38.3911L24.4867 37.1025C24.3365 36.866 24.1361 36.6656 23.8996 36.5154L22.611 35.6957L51.1819 7.12482L55.673 5.32914L53.8811 9.82026H53.8773Z" fill="black"/>
</svg>
