<svg width="167" height="53" viewBox="0 0 167 53" fill="none" xmlns="http://www.w3.org/2000/svg">
<path d="M18.3468 24.3938L8.12271 11.4092C7.37458 10.459 8.05139 9.0647 9.2607 9.0647H40.765C41.918 9.0647 42.6088 10.3466 41.9747 11.3096L28.0549 32.4511C27.5517 33.2153 26.4748 33.3273 25.8251 32.6829L20.8186 27.7171" stroke="#FF9606" stroke-width="1.84511"/>
<path d="M34.6438 28.2255L47.3508 8.61434C48.0955 7.46508 47.2706 5.94768 45.9012 5.94768H28.7495C27.7955 5.94768 27.0222 5.17431 27.0222 4.22031V0.856934" stroke="#FF9606" stroke-width="1.84511"/>
<path d="M15.6913 26.0836L2.17355 8.7368C1.28955 7.6024 2.0979 5.94768 3.53606 5.94768H19.2748C20.2288 5.94768 21.0022 5.17431 21.0022 4.22031V0.856934" stroke="#FF9606" stroke-width="1.84511"/>
<path d="M34.5861 27.4173L47.9218 45.1437C48.7783 46.2821 47.9661 47.9095 46.5415 47.9095H28.7647C27.8107 47.9095 27.0374 48.6829 27.0374 49.6369V53.0002" stroke="#FF9606" stroke-width="1.84511"/>
<path d="M15.6913 25.2389L3.42049 45.2802C2.71576 46.4311 3.54404 47.9095 4.89365 47.9095H19.2748C20.2288 47.9095 21.0022 48.6829 21.0022 49.6369V53.0002" stroke="#FF9606" stroke-width="1.84511"/>
<path d="M32.1067 29.7047L41.6736 42.2231C42.402 43.1762 41.7224 44.551 40.5228 44.551L10.1236 44.551C8.98034 44.551 8.28773 43.2886 8.90198 42.3244L22.3411 21.2281C22.8427 20.4406 23.9475 20.3265 24.5995 20.9949L29.3828 25.8986" stroke="#FF9606" stroke-width="1.84511"/>
<path d="M57.3461 33.6179V31.6806L65.3354 22.0491L65.7044 23.1377H57.4937V20.7021H68.3614V22.6395L60.3905 32.271L60.0215 31.1824H68.6382V33.6179H57.3461ZM76.4772 33.6179V31.6806L76.2926 31.2562V27.7874C76.2926 27.1723 76.102 26.6926 75.7207 26.3482C75.3516 26.0038 74.7796 25.8315 74.0047 25.8315C73.4758 25.8315 72.953 25.9176 72.4364 26.0899C71.932 26.2498 71.5015 26.4712 71.1448 26.7541L70.1115 24.7429C70.6527 24.3616 71.3047 24.0664 72.0673 23.8573C72.83 23.6482 73.6049 23.5436 74.3922 23.5436C75.9052 23.5436 77.0799 23.9003 77.9163 24.6138C78.7528 25.3272 79.171 26.4404 79.171 27.9534V33.6179H76.4772ZM73.4512 33.7655C72.6762 33.7655 72.012 33.6364 71.4584 33.3781C70.9049 33.1074 70.4805 32.7446 70.1853 32.2894C69.8901 31.8343 69.7425 31.3238 69.7425 30.758C69.7425 30.1676 69.8839 29.6509 70.1669 29.2081C70.4621 28.7653 70.9234 28.4209 71.5507 28.1748C72.178 27.9165 72.996 27.7874 74.0047 27.7874H76.6432V29.4664H74.3184C73.6418 29.4664 73.1744 29.5771 72.9161 29.7985C72.6701 30.0199 72.5471 30.2967 72.5471 30.6288C72.5471 30.9979 72.6885 31.2931 72.9714 31.5145C73.2667 31.7236 73.6664 31.8282 74.1708 31.8282C74.6505 31.8282 75.081 31.7175 75.4623 31.496C75.8437 31.2623 76.1204 30.9241 76.2926 30.4812L76.7355 31.8097C76.5264 32.4493 76.145 32.9352 75.5915 33.2673C75.038 33.5995 74.3245 33.7655 73.4512 33.7655ZM84.1563 31.5883L84.2301 28.0826L88.8613 23.6912H92.2932L87.8465 28.2117L86.352 29.4295L84.1563 31.5883ZM81.7761 33.6179V19.9272H84.6545V33.6179H81.7761ZM89.175 33.6179L85.8169 29.448L87.6251 27.2154L92.6623 33.6179H89.175ZM99.8654 33.6179V31.6806L99.6809 31.2562V27.7874C99.6809 27.1723 99.4902 26.6926 99.1089 26.3482C98.7399 26.0038 98.1679 25.8315 97.3929 25.8315C96.864 25.8315 96.3412 25.9176 95.8246 26.0899C95.3203 26.2498 94.8897 26.4712 94.533 26.7541L93.4998 24.7429C94.041 24.3616 94.6929 24.0664 95.4556 23.8573C96.2182 23.6482 96.9932 23.5436 97.7804 23.5436C99.2934 23.5436 100.468 23.9003 101.305 24.6138C102.141 25.3272 102.559 26.4404 102.559 27.9534V33.6179H99.8654ZM96.8394 33.7655C96.0645 33.7655 95.4002 33.6364 94.8467 33.3781C94.2932 33.1074 93.8688 32.7446 93.5736 32.2894C93.2783 31.8343 93.1307 31.3238 93.1307 30.758C93.1307 30.1676 93.2722 29.6509 93.5551 29.2081C93.8503 28.7653 94.3116 28.4209 94.9389 28.1748C95.5663 27.9165 96.3843 27.7874 97.3929 27.7874H100.031V29.4664H97.7066C97.0301 29.4664 96.5626 29.5771 96.3043 29.7985C96.0583 30.0199 95.9353 30.2967 95.9353 30.6288C95.9353 30.9979 96.0768 31.2931 96.3597 31.5145C96.6549 31.7236 97.0547 31.8282 97.559 31.8282C98.0387 31.8282 98.4693 31.7175 98.8506 31.496C99.2319 31.2623 99.5087 30.9241 99.6809 30.4812L100.124 31.8097C99.9146 32.4493 99.5333 32.9352 98.9797 33.2673C98.4262 33.5995 97.7128 33.7655 96.8394 33.7655ZM109.224 33.7655C108.055 33.7655 107.145 33.4703 106.493 32.8799C105.841 32.2771 105.515 31.3853 105.515 30.2045V21.4955H108.393V30.1676C108.393 30.5858 108.504 30.9118 108.725 31.1455C108.947 31.3669 109.248 31.4776 109.63 31.4776C110.085 31.4776 110.472 31.3546 110.792 31.1086L111.567 33.1382C111.272 33.3473 110.915 33.5072 110.497 33.6179C110.091 33.7163 109.666 33.7655 109.224 33.7655ZM103.983 26.1268V23.9126H110.866V26.1268H103.983ZM119.567 33.7286C118.595 33.7286 117.697 33.5687 116.873 33.2489C116.049 32.9168 115.335 32.4555 114.733 31.8651C114.13 31.2746 113.656 30.5796 113.312 29.7801C112.98 28.9805 112.814 28.1072 112.814 27.16C112.814 26.2129 112.98 25.3395 113.312 24.54C113.656 23.7404 114.13 23.0454 114.733 22.455C115.348 21.8646 116.067 21.4094 116.891 21.0896C117.715 20.7575 118.613 20.5914 119.585 20.5914C120.52 20.5914 121.4 20.7513 122.224 21.0712C123.048 21.3787 123.743 21.8461 124.309 22.4734L123.441 23.3406C122.913 22.7994 122.328 22.4119 121.689 22.1782C121.049 21.9322 120.36 21.8092 119.622 21.8092C118.847 21.8092 118.128 21.9445 117.463 22.2151C116.799 22.4734 116.221 22.8486 115.729 23.3406C115.237 23.8204 114.849 24.3862 114.566 25.0381C114.296 25.6778 114.161 26.3851 114.161 27.16C114.161 27.935 114.296 28.6484 114.566 29.3004C114.849 29.94 115.237 30.5058 115.729 30.9979C116.221 31.4776 116.799 31.8528 117.463 32.1234C118.128 32.3817 118.847 32.5109 119.622 32.5109C120.36 32.5109 121.049 32.3878 121.689 32.1418C122.328 31.8958 122.913 31.5022 123.441 30.961L124.309 31.8282C123.743 32.4555 123.048 32.9291 122.224 33.2489C121.4 33.5687 120.514 33.7286 119.567 33.7286ZM131.887 23.8388C132.675 23.8388 133.364 23.9926 133.954 24.3001C134.557 24.5953 135.024 25.0504 135.356 25.6655C135.701 26.2805 135.873 27.0555 135.873 27.9903V33.6179H134.563V28.1195C134.563 27.0985 134.305 26.3297 133.788 25.8131C133.284 25.2842 132.57 25.0197 131.648 25.0197C130.959 25.0197 130.356 25.1612 129.839 25.4441C129.335 25.7147 128.941 26.1145 128.659 26.6434C128.388 27.16 128.253 27.7874 128.253 28.5254V33.6179H126.943V19.9272H128.253V26.588L127.994 26.0899C128.302 25.3887 128.794 24.8413 129.47 24.4477C130.147 24.0418 130.953 23.8388 131.887 23.8388ZM145.482 33.6179V31.4776L145.427 31.127V27.5475C145.427 26.7233 145.193 26.0899 144.725 25.647C144.27 25.2042 143.588 24.9828 142.677 24.9828C142.05 24.9828 141.453 25.0873 140.888 25.2965C140.322 25.5056 139.842 25.7823 139.448 26.1268L138.858 25.1489C139.35 24.7306 139.94 24.4108 140.629 24.1894C141.318 23.9557 142.044 23.8388 142.807 23.8388C144.061 23.8388 145.027 24.1525 145.703 24.7798C146.392 25.3949 146.737 26.3359 146.737 27.6029V33.6179H145.482ZM142.142 33.7102C141.417 33.7102 140.783 33.5933 140.242 33.3596C139.713 33.1136 139.307 32.7815 139.024 32.3632C138.741 31.9327 138.6 31.4407 138.6 30.8872C138.6 30.3828 138.717 29.9277 138.95 29.5218C139.196 29.1035 139.59 28.7714 140.131 28.5254C140.685 28.2671 141.423 28.1379 142.345 28.1379H145.685V29.1158H142.382C141.447 29.1158 140.795 29.2819 140.426 29.614C140.07 29.9461 139.891 30.3582 139.891 30.8503C139.891 31.4038 140.106 31.8466 140.537 32.1787C140.968 32.5109 141.57 32.6769 142.345 32.6769C143.083 32.6769 143.717 32.5109 144.246 32.1787C144.787 31.8343 145.181 31.3423 145.427 30.7026L145.722 31.6067C145.476 32.2464 145.045 32.7569 144.43 33.1382C143.827 33.5195 143.065 33.7102 142.142 33.7102ZM150.295 33.6179V23.9311H151.605V33.6179H150.295ZM150.959 21.7907C150.688 21.7907 150.461 21.6985 150.276 21.514C150.092 21.3295 150 21.1081 150 20.8497C150 20.5914 150.092 20.3762 150.276 20.2039C150.461 20.0194 150.688 19.9272 150.959 19.9272C151.23 19.9272 151.457 20.0133 151.642 20.1855C151.826 20.3577 151.918 20.573 151.918 20.8313C151.918 21.1019 151.826 21.3295 151.642 21.514C151.47 21.6985 151.242 21.7907 150.959 21.7907ZM160.195 23.8388C160.982 23.8388 161.671 23.9926 162.261 24.3001C162.864 24.5953 163.332 25.0504 163.664 25.6655C164.008 26.2805 164.18 27.0555 164.18 27.9903V33.6179H162.87V28.1195C162.87 27.0985 162.612 26.3297 162.095 25.8131C161.591 25.2842 160.878 25.0197 159.955 25.0197C159.266 25.0197 158.663 25.1612 158.147 25.4441C157.642 25.7147 157.249 26.1145 156.966 26.6434C156.695 27.16 156.56 27.7874 156.56 28.5254V33.6179H155.25V23.9311H156.505V26.588L156.302 26.0899C156.609 25.3887 157.101 24.8413 157.778 24.4477C158.454 24.0418 159.26 23.8388 160.195 23.8388Z" fill="#17163E"/>
</svg>
