<svg width="60" height="61" viewBox="0 0 72 73" fill="none" xmlns="http://www.w3.org/2000/svg">
<path d="M35.9896 0.856934C30.5515 0.860076 25.1848 2.09482 20.2921 4.4685C15.3994 6.84218 11.1079 10.2931 7.73956 14.5624C4.37122 18.8317 2.01353 23.8085 0.843452 29.1192C-0.32663 34.4298 -0.278732 39.9366 0.983559 45.2261C2.24585 50.5157 4.68974 55.4506 8.13186 59.6607C11.574 63.8707 15.9249 67.2465 20.8581 69.5347C25.7913 71.8229 31.1787 72.9641 36.616 72.8727C42.0533 72.7812 47.3993 71.4595 52.2528 69.0066L52.7975 68.7141L69.2047 72.8102C69.5205 72.8896 69.8497 72.8996 70.1697 72.8394C70.4896 72.7792 70.7927 72.6503 71.0581 72.4616C71.3234 72.2728 71.5446 72.0288 71.7064 71.7463C71.8683 71.4638 71.9669 71.1495 71.9955 70.8252V70.4561L71.9325 70.0824L67.8363 53.6797L68.1199 53.1395C70.1797 49.0846 71.4477 44.6741 71.856 40.1443L71.9685 38.4248L72 36.8673C72 27.3168 68.2061 18.1574 61.4528 11.4041C54.6995 4.65088 45.5401 0.856934 35.9896 0.856934ZM33.7389 41.3686H47.2428L47.648 41.4047C48.1669 41.4986 48.6363 41.7718 48.9744 42.1766C49.3124 42.5813 49.4976 43.0919 49.4976 43.6193C49.4976 44.1467 49.3124 44.6573 48.9744 45.062C48.6363 45.4668 48.1669 45.74 47.648 45.8339L47.2428 45.8699H33.7389L33.3338 45.8339C32.8149 45.74 32.3455 45.4668 32.0074 45.062C31.6694 44.6573 31.4842 44.1467 31.4842 43.6193C31.4842 43.0919 31.6694 42.5813 32.0074 42.1766C32.3455 41.7718 32.8149 41.4986 33.3338 41.4047L33.7389 41.3686ZM24.7363 27.8647H47.2428L47.648 27.9008C48.1669 27.9947 48.6363 28.2679 48.9744 28.6727C49.3124 29.0774 49.4976 29.588 49.4976 30.1154C49.4976 30.6427 49.3124 31.1534 48.9744 31.5581C48.6363 31.9629 48.1669 32.2361 47.648 32.33L47.2428 32.366H24.7363L24.3312 32.33C23.8123 32.2361 23.3429 31.9629 23.0048 31.5581C22.6668 31.1534 22.4816 30.6427 22.4816 30.1154C22.4816 29.588 22.6668 29.0774 23.0048 28.6727C23.3429 28.2679 23.8123 27.9947 24.3312 27.9008L24.7363 27.8647Z" fill="#FF9606"/>
</svg>
