<svg width="200" height="50" viewBox="0 0 271 59" fill="none" xmlns="http://www.w3.org/2000/svg">
<path d="M68.61 43V39.255L81.42 23.26H69.03V18.535H88.875V22.315L76.1 38.24H89.085V43H68.61ZM109.098 43H104.163V40.725C102.81 42.4283 101.13 43.28 99.1232 43.28C97.1398 43.28 95.4715 42.7083 94.1182 41.565C92.7648 40.3983 92.0882 38.8583 92.0882 36.945C92.0882 35.0083 92.7882 33.5617 94.1882 32.605C95.5882 31.6483 97.5015 31.17 99.9282 31.17H103.848V31.065C103.848 29.0583 102.786 28.055 100.663 28.055C99.7532 28.055 98.7848 28.2417 97.7582 28.615C96.7548 28.965 95.9032 29.4083 95.2032 29.945L92.8582 26.55C95.3315 24.7533 98.1548 23.855 101.328 23.855C103.615 23.855 105.481 24.4267 106.928 25.57C108.375 26.7133 109.098 28.5217 109.098 30.995V43ZM103.813 35.825V34.915H100.523C98.4232 34.915 97.3732 35.5683 97.3732 36.875C97.3732 37.5517 97.6182 38.0767 98.1082 38.45C98.6215 38.8 99.3448 38.975 100.278 38.975C101.211 38.975 102.028 38.695 102.728 38.135C103.451 37.5517 103.813 36.7817 103.813 35.825ZM119.134 43H113.884V17.03H119.134V30.365L124.979 24.135H131.594L124.419 31.765L131.874 43H125.644L120.849 35.79L119.134 37.575V43ZM150.216 43H145.281V40.725C143.928 42.4283 142.248 43.28 140.241 43.28C138.258 43.28 136.59 42.7083 135.236 41.565C133.883 40.3983 133.206 38.8583 133.206 36.945C133.206 35.0083 133.906 33.5617 135.306 32.605C136.706 31.6483 138.62 31.17 141.046 31.17H144.966V31.065C144.966 29.0583 143.905 28.055 141.781 28.055C140.871 28.055 139.903 28.2417 138.876 28.615C137.873 28.965 137.021 29.4083 136.321 29.945L133.976 26.55C136.45 24.7533 139.273 23.855 142.446 23.855C144.733 23.855 146.6 24.4267 148.046 25.57C149.493 26.7133 150.216 28.5217 150.216 30.995V43ZM144.931 35.825V34.915H141.641C139.541 34.915 138.491 35.5683 138.491 36.875C138.491 37.5517 138.736 38.0767 139.226 38.45C139.74 38.8 140.463 38.975 141.396 38.975C142.33 38.975 143.146 38.695 143.846 38.135C144.57 37.5517 144.931 36.7817 144.931 35.825ZM161.062 27.95V36.385C161.062 37.1083 161.249 37.68 161.623 38.1C161.996 38.4967 162.439 38.695 162.953 38.695C163.933 38.695 164.761 38.2517 165.438 37.365L167.398 41.04C165.764 42.5333 164.038 43.28 162.218 43.28C160.421 43.28 158.893 42.685 157.633 41.495C156.396 40.305 155.778 38.6833 155.778 36.63V27.95H153.573V24.17H155.778V18.535H161.062V24.17H165.613V27.95H161.062ZM182.358 43.21C175.008 43.21 169.548 37.925 169.548 30.75C169.548 23.575 175.008 18.29 182.393 18.29C185.963 18.29 189.183 19.48 191.353 21.86L189.708 23.505C187.713 21.475 185.263 20.6 182.463 20.6C176.548 20.6 172.103 24.94 172.103 30.75C172.103 36.56 176.548 40.9 182.463 40.9C185.263 40.9 187.713 40.025 189.708 37.96L191.353 39.605C189.183 41.985 185.963 43.21 182.358 43.21ZM205.729 24.45C210.209 24.45 213.289 27.04 213.289 32.325V43H210.804V32.57C210.804 28.685 208.774 26.69 205.274 26.69C201.319 26.69 198.834 29.14 198.834 33.34V43H196.349V17.03H198.834V27.81C200.199 25.675 202.614 24.45 205.729 24.45ZM226.475 24.45C231.235 24.45 233.93 26.83 233.93 31.59V43H231.55V40.13C230.43 42.02 228.26 43.175 225.215 43.175C221.05 43.175 218.495 41.005 218.495 37.82C218.495 34.985 220.315 32.605 225.6 32.605H231.445V31.485C231.445 28.335 229.66 26.62 226.23 26.62C223.85 26.62 221.61 27.46 220.105 28.79L218.985 26.935C220.84 25.36 223.57 24.45 226.475 24.45ZM225.6 41.215C228.4 41.215 230.465 39.885 231.445 37.47V34.46H225.67C222.1 34.46 220.945 35.86 220.945 37.75C220.945 39.885 222.66 41.215 225.6 41.215ZM241.94 20.565C240.925 20.565 240.12 19.76 240.12 18.78C240.12 17.835 240.925 17.03 241.94 17.03C242.955 17.03 243.76 17.8 243.76 18.745C243.76 19.76 242.99 20.565 241.94 20.565ZM240.68 43V24.59H243.165V43H240.68ZM259.459 24.45C263.939 24.45 267.019 27.04 267.019 32.325V43H264.534V32.57C264.534 28.685 262.504 26.69 259.004 26.69C255.049 26.69 252.564 29.14 252.564 33.34V43H250.079V24.59H252.459V27.985C253.789 25.745 256.274 24.45 259.459 24.45Z" fill="#17163E"/>
<path d="M20.5474 26.3599L9.09697 11.8178C8.25911 10.7537 9.01709 9.19214 10.3714 9.19214H45.6544C46.9458 9.19214 47.7194 10.6277 47.0093 11.7063L31.4199 35.3835C30.8563 36.2394 29.6502 36.3648 28.9227 35.6432L23.3157 30.0818" stroke="#FF9606" stroke-width="2.06642"/>
<path d="M38.7991 30.6512L53.0302 8.68785C53.8642 7.40074 52.9404 5.70134 51.4067 5.70134H32.1978C31.1294 5.70134 30.2633 4.83521 30.2633 3.76679V0" stroke="#FF9606" stroke-width="2.06642"/>
<path d="M17.5733 28.2524L2.43417 8.825C1.44414 7.55454 2.34945 5.70134 3.96011 5.70134H21.5866C22.655 5.70134 23.5211 4.83521 23.5211 3.76679V0" stroke="#FF9606" stroke-width="2.06642"/>
<path d="M38.7344 29.7461L53.6697 49.5986C54.6289 50.8735 53.7192 52.6961 52.1238 52.6961H32.2148C31.1464 52.6961 30.2803 53.5623 30.2803 54.6307V58.3975" stroke="#FF9606" stroke-width="2.06642"/>
<path d="M17.5733 27.3063L3.83068 49.7514C3.04142 51.0405 3.96905 52.6961 5.48053 52.6961H21.5866C22.655 52.6961 23.5211 53.5623 23.5211 54.6307V58.3975" stroke="#FF9606" stroke-width="2.06642"/>
<path d="M35.9576 32.3078L46.672 46.3277C47.4878 47.3951 46.7266 48.9348 45.3832 48.9348L11.3378 48.9348C10.0575 48.9348 9.28178 47.521 9.9697 46.4411L25.0207 22.8145C25.5825 21.9326 26.8198 21.8048 27.55 22.5534L32.9071 28.0452" stroke="#FF9606" stroke-width="2.06642"/>
</svg>
